<svg width="349" height="235" viewBox="0 0 349 235" fill="none" xmlns="http://www.w3.org/2000/svg">
<path d="M323.109 116.611C327.249 116.611 330.218 117.511 332.016 119.31C333.997 121.108 334.986 123.45 334.986 126.328C334.986 131.008 333.545 135.145 330.667 138.745C327.967 142.345 323.648 144.235 317.71 144.413C303.493 144.592 290.716 143.513 279.379 141.174C266.783 167.989 251.576 190.302 233.761 208.117C216.126 225.754 198.67 234.571 181.394 234.571C165.558 234.571 153.681 226.203 145.763 209.467C137.845 192.552 133.346 169.966 132.267 141.714C121.469 173.026 109.233 196.331 95.5558 211.626C82.0592 226.921 67.6631 234.571 52.3668 234.571C35.0911 234.571 22.0446 223.865 13.2267 202.449C4.409 180.854 0 151.88 0 115.531C0 89.0775 2.33963 60.0149 7.01822 28.3428C8.27813 19.345 10.5273 13.1366 13.7665 9.71756C17.1859 6.11836 22.4944 4.31893 29.6925 4.31893C35.0911 4.31893 39.2302 5.48872 42.1093 7.82802C45.1687 10.1673 46.6982 14.4862 46.6982 20.7848C46.6982 22.0443 46.5183 24.4737 46.1583 28.0729C40.7597 64.9634 38.0604 96.3656 38.0604 122.279C38.0604 146.394 40.1301 165.019 44.2688 178.155C48.4079 191.29 53.9863 197.86 61.0046 197.86C67.3031 197.86 74.8612 191.29 83.6788 178.155C92.6767 164.837 101.584 145.223 110.402 119.31C119.22 93.2175 126.688 62.1744 132.806 26.1834C134.246 17.9056 136.855 12.237 140.634 9.17768C144.594 5.9385 149.902 4.31893 156.56 4.31893C162.139 4.31893 166.188 5.57848 168.707 8.09796C171.407 10.4373 172.756 14.0365 172.756 18.8952C172.756 21.7744 172.576 24.0239 172.216 25.6435C167.178 54.976 164.658 84.3098 164.658 113.641C164.658 133.616 165.288 149.542 166.548 161.419C167.988 173.296 170.597 182.383 174.376 188.682C178.335 194.8 184.004 197.86 191.382 197.86C200.019 197.86 209.647 191.382 220.264 178.425C230.882 165.289 240.599 149.002 249.417 129.567C238.44 122.728 230.162 113.911 224.583 103.114C219.005 92.1378 216.215 79.5387 216.215 65.3235C216.215 51.1072 218.375 39.1401 222.694 29.4226C227.193 19.5252 233.221 12.1469 240.779 7.28817C248.517 2.4294 257.065 0 266.423 0C277.94 0 287.027 4.13907 293.686 12.4169C300.524 20.6947 303.943 32.0318 303.943 46.4283C303.943 66.7632 299.534 89.3474 290.716 114.181C299.894 115.801 310.692 116.611 323.109 116.611ZM243.478 63.434C243.478 81.0706 249.147 94.1151 260.484 102.574C267.502 82.4203 271.011 65.7733 271.011 52.6367C271.011 45.0786 270.022 39.5899 268.042 36.1709C266.063 32.5717 263.364 30.7722 259.944 30.7722C255.085 30.7722 251.127 33.6514 248.067 39.41C245.008 44.9885 243.478 52.9967 243.478 63.434Z" fill="black"/>
<path d="M322.024 155.778C314.105 155.778 308.075 153.619 303.939 149.3C299.977 144.981 298 139.312 298 132.294C298 124.196 300.247 117.718 304.748 112.859C309.425 108 315.903 105.571 324.183 105.571C332.099 105.571 338.038 107.55 341.999 111.509C346.136 115.288 348.207 120.957 348.207 128.515C348.207 136.793 345.866 143.452 341.189 148.49C336.509 153.349 330.122 155.778 322.024 155.778Z" fill="#7243FA"/>
</svg>
